<?xml version="1.0" standalone="no"?>
<!DOCTYPE svg PUBLIC "-//W3C//DTD SVG 20010904//EN"
 "http://www.w3.org/TR/2001/REC-SVG-20010904/DTD/svg10.dtd">
<svg version="1.0" xmlns="http://www.w3.org/2000/svg"
 width="700.000000pt" height="700.000000pt" viewBox="0 0 700.000000 700.000000"
 preserveAspectRatio="xMidYMid meet">
<metadata>
Created by potrace 1.14, written by Peter Selinger 2001-2017
</metadata>
<g transform="translate(0.000000,700.000000) scale(0.100000,-0.100000)"
fill="#000000" stroke="none">
<path d="M3250 6994 c-19 -2 -80 -9 -135 -15 -557 -60 -1094 -259 -1575 -583
-338 -228 -689 -575 -923 -912 -592 -852 -770 -1956 -476 -2960 83 -287 236
-627 389 -872 338 -540 841 -997 1407 -1281 374 -187 742 -297 1183 -353 158
-20 640 -17 805 5 1046 140 1944 706 2519 1589 285 439 463 930 532 1473 23
173 26 624 6 785 -43 349 -108 610 -225 909 -254 652 -711 1220 -1303 1621
-460 312 -964 502 -1526 576 -116 15 -592 28 -678 18z m1242 -895 c72 -15 200
-76 273 -131 33 -24 95 -82 138 -129 71 -76 86 -99 153 -244 42 -88 79 -163
82 -167 4 -4 133 69 287 162 154 93 281 168 282 166 2 -2 -159 -305 -358 -673
l-362 -671 -616 -6 c-339 -3 -667 -8 -729 -11 -63 -3 -111 -2 -109 2 3 4 104
71 226 148 121 77 220 144 221 148 0 5 -78 131 -173 280 -95 150 -188 299
-207 332 -104 188 -432 621 -556 735 l-56 50 89 1 c48 1 268 5 488 8 675 12
871 12 927 0z m-1879 -70 c78 -20 221 -99 275 -152 104 -101 385 -470 467
-613 l18 -31 -288 -544 c-158 -299 -294 -554 -301 -566 -13 -21 -16 -20 -216
88 -112 60 -382 204 -601 321 -292 156 -397 217 -394 228 8 31 580 1056 617
1106 43 58 122 114 219 156 69 29 110 31 204 7z m3254 -1996 c171 -285 318
-539 327 -566 30 -89 39 -178 28 -271 -8 -76 -15 -95 -47 -141 -21 -31 -60
-69 -93 -91 -31 -21 -75 -53 -98 -71 -27 -21 -67 -39 -120 -52 -148 -38 -572
-91 -729 -91 l-60 0 -344 542 c-189 298 -339 544 -335 546 5 1 263 162 574
357 311 195 570 354 576 355 6 0 151 -233 321 -517z m-3525 -338 c202 -340
366 -621 364 -622 -2 -2 -109 51 -239 117 l-235 121 -20 -33 c-10 -18 -81
-152 -157 -298 -77 -145 -150 -280 -163 -300 -41 -59 -197 -387 -255 -535 -61
-155 -117 -333 -117 -373 0 -16 -4 -22 -9 -16 -15 14 -689 1151 -723 1218 -77
152 -77 363 0 593 25 72 52 123 127 235 81 122 93 145 80 154 -8 6 -139 81
-289 165 l-275 154 167 8 c210 10 1190 35 1297 33 l80 -1 367 -620z m1924
-936 c8 -145 17 -265 19 -268 3 -2 127 4 277 13 150 9 356 16 458 16 265 0
641 45 869 106 52 13 95 23 97 21 4 -4 -651 -1166 -696 -1237 -83 -129 -246
-237 -430 -285 -114 -30 -155 -32 -312 -19 -84 7 -166 13 -182 14 l-29 0 6
-337 c4 -185 5 -335 3 -332 -2 2 -182 298 -400 657 l-397 653 348 634 c192
348 349 632 351 630 2 -1 10 -121 18 -266z m-916 -271 c0 -40 7 -316 15 -613
8 -297 15 -574 15 -616 l0 -77 -457 -7 c-819 -13 -798 -13 -880 13 -103 32
-216 110 -253 175 -33 57 -38 84 -49 223 -6 84 -4 110 16 188 40 156 151 437
250 628 l55 107 52 5 c28 3 260 13 516 21 256 9 483 17 505 19 22 1 79 3 128
4 l87 2 0 -72z"/>
</g>
</svg>
